<svg width="112" height="181" viewBox="0 0 112 181" fill="none" xmlns="http://www.w3.org/2000/svg">
<g clip-path="url(#clip0_502_229)">
<path d="M34.2156 163.876C34.2156 158.447 34.2156 153.018 34.2156 147.59C34.2156 147.032 34.2156 146.753 34.9334 146.753C40.9369 146.753 46.9621 146.409 52.9439 146.881C54.3207 146.894 55.6755 147.224 56.8994 147.847C58.1233 148.469 59.1823 149.366 59.9915 150.465C60.6828 151.541 61.1504 152.742 61.367 153.999C61.5836 155.255 61.5448 156.541 61.2531 157.782C61.0845 158.651 60.7418 159.479 60.245 160.216C59.7482 160.953 59.1074 161.584 58.3601 162.074C57.8163 162.482 57.6858 162.653 58.3601 163.104C59.4489 163.7 60.3853 164.534 61.0978 165.542C61.8102 166.55 62.28 167.705 62.4712 168.919C63.1672 174.605 60.1002 180.163 53.3789 180.721C51.4647 180.893 49.5506 180.871 47.6364 180.914C43.4818 180.914 39.349 180.914 35.2162 180.914C34.5201 180.914 34.1938 180.914 34.1938 179.948C34.2373 174.648 34.2156 169.262 34.2156 163.876ZM46.8534 174.799H49.3766C50.2249 174.799 51.0732 174.799 51.9215 174.799C52.262 174.797 52.5973 174.716 52.9004 174.562C53.8131 174.026 54.5209 173.207 54.9142 172.234C55.3074 171.26 55.3641 170.185 55.0755 169.176C55.0191 168.715 54.8706 168.269 54.6384 167.864C54.4062 167.46 54.0951 167.104 53.7229 166.819C53.3508 166.534 52.925 166.324 52.4702 166.202C52.0154 166.08 51.5406 166.048 51.0732 166.108H41.7634C41.2632 166.108 41.0674 166.108 41.0891 166.73C41.0891 169.262 41.0891 171.773 41.0891 174.305C41.0891 174.82 41.2414 174.884 41.6982 174.884L46.8534 174.799ZM46.2226 160.271H50.5729C51.1624 160.331 51.7578 160.251 52.3095 160.038C52.8613 159.825 53.3534 159.485 53.745 159.046C54.1365 158.607 54.4162 158.082 54.5606 157.515C54.705 156.949 54.71 156.356 54.5753 155.787C54.3577 154.134 53.5747 153.212 52.1173 153.126C48.7023 152.89 45.309 152.654 41.8722 152.589C41.4154 152.589 41.2414 152.589 41.2631 153.169C41.2631 155.357 41.2631 157.546 41.2631 159.735C41.2631 160.25 41.4154 160.314 41.8722 160.314L46.2226 160.271Z" fill="#010101"/>
<path d="M23.4267 164.842C26.4502 166.215 26.9505 168.919 27.1027 171.773C27.1027 173.468 27.1027 175.142 27.2333 176.837C27.3492 177.85 27.707 178.82 28.2773 179.67C28.3605 179.804 28.4262 179.948 28.4731 180.099C28.7994 180.936 28.7994 180.936 27.8641 180.936H21.7083C20.6425 180.936 20.3597 180.678 20.2509 179.584C20.0117 176.687 19.7506 173.79 19.4896 171.001C19.5147 170.593 19.4489 170.185 19.2968 169.806C19.1446 169.426 18.9099 169.084 18.6091 168.803C18.3083 168.523 17.9488 168.311 17.556 168.183C17.1632 168.055 16.7466 168.013 16.3356 168.061C13.6166 167.932 10.9194 168.061 8.20043 168.061C7.59138 168.061 7.67839 168.383 7.67839 168.747C7.67839 172.588 7.67839 176.43 7.67839 180.292C7.67839 180.957 7.48262 181.107 6.85182 181.086C4.89416 181.086 2.95825 181.086 1.00058 181.086C0.522044 181.086 0.369781 181.086 0.369781 180.485C0.369781 169.513 0.369781 158.541 0.369781 147.568C0.369781 147.032 0.543796 146.946 1.04409 146.946C6.047 146.946 11.0499 146.946 16.0528 146.946C17.7429 146.856 19.4377 146.972 21.0992 147.289C22.8377 147.81 24.3969 148.793 25.6052 150.132C26.8136 151.47 27.6243 153.111 27.9481 154.875C28.2719 156.638 28.0963 158.456 27.4405 160.127C26.7848 161.799 25.6744 163.259 24.2315 164.349L23.5572 164.885C23.5572 164.885 23.4702 164.756 23.4267 164.842ZM12.5508 161.816C14.0299 161.816 15.4873 161.816 16.9011 161.816C17.7094 161.845 18.5029 161.598 19.1485 161.117C19.7941 160.637 20.2525 159.952 20.4467 159.177C20.7733 157.968 20.7733 156.695 20.4467 155.486C20.3057 154.782 19.9287 154.145 19.3763 153.678C18.8239 153.211 18.1283 152.941 17.4014 152.911C14.552 152.675 11.6807 152.654 8.83123 152.632C8.64589 152.615 8.45891 152.639 8.28417 152.702C8.10942 152.765 7.95141 152.867 7.82185 152.999C7.6923 153.131 7.59453 153.29 7.5358 153.464C7.47707 153.638 7.4589 153.823 7.48262 154.006C7.48262 156.366 7.48262 158.726 7.48262 161.087C7.48262 161.752 7.70014 161.838 8.26568 161.816H12.5508Z" fill="#010101"/>
<path d="M91.6403 159.156C90.6397 159.156 89.6391 159.156 88.6385 159.156C88.2595 159.207 87.875 159.113 87.5637 158.893C87.2524 158.674 87.0378 158.346 86.9637 157.975C86.7599 157.441 86.4973 156.93 86.1806 156.452C85.6055 155.615 84.8132 154.946 83.8863 154.515C82.9595 154.083 81.9322 153.906 80.9119 154C79.8916 154.094 78.9157 154.457 78.0862 155.051C77.2567 155.644 76.604 156.447 76.1965 157.375C74.4515 161.327 74.3113 165.79 75.805 169.842C76.0854 170.639 76.5354 171.368 77.1248 171.98C77.7142 172.592 78.4294 173.073 79.2224 173.39C80.0154 173.707 80.8679 173.853 81.7229 173.818C82.5778 173.784 83.4154 173.569 84.1794 173.189C84.8408 172.888 85.4193 172.435 85.8659 171.867C86.3126 171.3 86.6145 170.634 86.7461 169.928C87.1594 168.297 87.4857 168.039 89.2041 168.104C91.124 168.211 93.0485 168.211 94.9683 168.104C95.5556 168.104 95.6644 168.254 95.5991 168.79C95.3033 171.821 93.9282 174.65 91.718 176.776C89.5079 178.901 86.6057 180.185 83.5269 180.399C81.0599 180.652 78.5689 180.55 76.1313 180.099C74.4314 179.819 72.8275 179.131 71.4617 178.094C70.0958 177.057 69.0101 175.704 68.3006 174.155C66.6655 171.005 65.8274 167.512 65.8577 163.973C65.888 160.435 66.7858 156.956 68.4746 153.834C69.4131 152.043 70.7939 150.515 72.4895 149.39C74.1851 148.264 76.1408 147.579 78.1759 147.397C81.2382 146.983 84.3537 147.187 87.3334 147.997C89.7229 148.621 91.8314 150.017 93.3219 151.962C94.8124 153.907 95.5989 156.289 95.5556 158.727C95.5556 159.177 95.5556 159.37 94.9683 159.349C93.8372 159.349 92.6844 159.349 91.5533 159.349L91.6403 159.156Z" fill="#DD2027"/>
<path d="M106.018 162.074C107.363 162.08 108.701 162.261 109.999 162.61C111.065 162.889 111.347 163.361 110.934 164.37C110.738 164.928 110.934 165.743 110.325 165.958C109.716 166.172 109.194 165.808 108.628 165.765C107.472 165.515 106.285 165.435 105.105 165.529C104.061 165.743 103.539 166.151 103.408 167.009C103.356 167.387 103.439 167.77 103.641 168.095C103.843 168.419 104.153 168.665 104.517 168.79C105.975 169.52 107.476 170.164 108.868 170.936C110.036 171.389 110.983 172.267 111.513 173.39C112.044 174.512 112.117 175.792 111.717 176.966C111.496 177.8 111.035 178.553 110.391 179.135C109.747 179.717 108.946 180.104 108.085 180.249C105.374 180.866 102.546 180.77 99.8842 179.97C98.7966 179.648 98.6226 179.262 98.9924 178.189L99.1882 177.502C99.4274 176.472 99.4274 176.494 100.515 176.623L105.3 177.202C105.732 177.255 106.171 177.179 106.558 176.984C106.946 176.789 107.266 176.484 107.476 176.108C107.954 175.485 107.476 174.284 106.453 173.769C105.431 173.254 104.648 172.953 103.756 172.524C102.864 172.095 102.407 171.923 101.777 171.58C100.872 171.128 100.141 170.397 99.6937 169.499C99.2464 168.601 99.1072 167.584 99.2969 166.602C99.3791 165.597 99.7777 164.644 100.437 163.874C101.096 163.104 101.983 162.557 102.973 162.31C103.971 162.083 104.997 162.004 106.018 162.074Z" fill="#DD2027"/>
<path d="M40.4144 0C42.3721 0.858328 44.4602 1.37333 46.4832 2.14582C60.5066 6.72361 73.5203 13.889 84.8316 23.2607C95.9581 32.4342 104.536 44.249 109.759 57.5938C109.955 58.1088 110.129 58.6238 110.368 59.2676C109.085 59.2676 107.91 59.0745 106.757 59.053C105.51 58.9301 104.251 59.0569 103.055 59.4256C101.859 59.7943 100.751 60.3974 99.7968 61.1988C99.2313 61.7353 98.7745 62.3576 98.2089 63.0013C96.9993 59.9877 95.6195 57.0434 94.0761 54.182C87.0492 41.3997 76.6563 30.7245 63.9933 23.2822C58.8315 20.1754 53.4357 17.4638 47.8535 15.171C47.4185 14.9993 47.0487 14.7632 46.7224 15.407C42.3721 23.7542 36.4773 31.0929 31.1916 38.7964C27.0721 44.3325 23.3645 50.1558 20.0982 56.2205C17.5606 60.8604 15.631 65.7996 14.3557 70.9194C12.9635 77.8597 13.7215 85.0527 16.5309 91.5622C19.1284 98.4129 23.5462 104.448 29.3212 109.035C35.0962 113.622 42.0157 116.592 49.3544 117.634C60.3113 119.377 71.5231 116.791 80.5615 110.438C89.5998 104.084 95.7368 94.4729 97.6434 83.687C97.7739 82.9789 97.6434 81.9704 98.1219 81.67C98.6005 81.3695 99.4923 81.8631 100.297 81.9704C104.256 82.8583 108.402 82.4283 112.087 80.7473C111.546 86.9481 109.965 93.0174 107.41 98.7078C99.1442 116.282 85.4189 127.333 66.0815 130.895C57.6402 132.609 48.9042 132.289 40.6151 129.962C32.3259 127.634 24.7282 123.369 18.4668 117.527C8.64845 108.864 2.2981 97.0194 0.565107 84.1376C-0.954044 73.8983 0.762492 63.4459 5.48101 54.2034C8.70744 48.0471 12.4625 42.1747 16.7049 36.6506C22.0559 29.2905 27.5808 22.0376 32.3662 14.2268C34.8513 10.2362 37.0325 6.06896 38.8918 1.75957C39.1528 1.1802 39.3486 0.579372 39.5661 0L40.4144 0Z" fill="#DD2027"/>
<path d="M25.2756 82.8501C26.3414 82.8501 27.4508 82.8501 28.4948 82.8501C29.1691 82.8501 29.4084 83.0003 29.5389 83.6655C29.9552 86.2846 30.7385 88.834 31.8664 91.2403C33.0143 93.6195 34.7339 95.6861 36.8758 97.2605C39.0176 98.8349 41.5168 99.8694 44.1561 100.274C45.2002 100.51 46.3313 100.682 47.3319 100.832C47.7452 100.832 47.9409 100.961 47.9409 101.433C47.9409 103.579 47.9409 105.853 47.9409 108.085C47.9409 108.943 47.2014 108.943 46.6576 108.986C45.5767 109.033 44.4944 108.939 43.4383 108.707C38.4788 107.956 33.8413 105.819 30.075 102.548C26.3087 99.2777 23.5712 95.0109 22.1868 90.2532C21.5453 88.0611 21.1943 85.7963 21.1427 83.5153C21.1427 82.9574 21.3167 82.8286 21.8388 82.8501C22.9264 82.893 24.101 82.8501 25.2756 82.8501Z" fill="#DD2027"/>
<path d="M104.409 79.6742C102.808 79.6772 101.219 79.4086 99.7102 78.8803C99.558 78.8803 99.3622 78.8803 99.2752 78.7086C98.6444 77.8288 99.4709 77.0349 99.4709 76.198C99.4709 75.7474 99.7755 75.6615 100.189 75.7259L104.322 76.2409C105.264 76.4214 106.241 76.2287 107.041 75.7045C107.255 75.5935 107.434 75.4269 107.559 75.2226C107.684 75.0184 107.75 74.7843 107.75 74.5457C107.75 74.3071 107.684 74.073 107.559 73.8688C107.434 73.6646 107.255 73.498 107.041 73.387C106.441 72.9839 105.799 72.6458 105.126 72.3784C104.039 71.8849 102.951 71.4343 101.885 70.8549C101.057 70.4448 100.377 69.7911 99.9409 68.984C99.5045 68.1769 99.3328 67.2561 99.4492 66.3487C99.4702 65.3681 99.812 64.4204 100.423 63.647C101.035 62.8736 101.883 62.3159 102.842 62.057C105.406 61.2999 108.15 61.398 110.651 62.336C110.978 62.336 111.152 62.572 110.999 62.9154C110.847 63.2587 110.999 62.9154 110.999 63.0227C110.608 65.4474 110.63 65.4045 108.15 65.1685C106.997 65.0183 105.822 64.5676 104.648 65.3187C103.473 66.0697 103.278 67.2928 104.648 68.1512C105.279 68.5144 105.942 68.8232 106.627 69.0739C107.966 69.5938 109.214 70.3179 110.325 71.2197C110.921 71.7369 111.373 72.3958 111.638 73.1339C111.903 73.8719 111.972 74.6645 111.839 75.4365C111.706 76.2084 111.376 76.9339 110.878 77.5442C110.381 78.1545 109.734 78.6292 108.998 78.9232C107.541 79.4972 105.975 79.7534 104.409 79.6742Z" fill="#DD2027"/>
</g>
<defs>
<clipPath id="clip0_502_229">
<rect width="112" height="181" fill="white"/>
</clipPath>
</defs>
</svg>
