<svg xmlns="http://www.w3.org/2000/svg" viewBox="0 0 178.96 193.6"><defs><style>.cls-1{fill:#e2e8f0;}.cls-2{fill:#eb5353;}.cls-3{fill:#262626;}.cls-4{fill:#fff;}.cls-5{fill:#2a5063;}.cls-6{fill:#4791b2;}.cls-7{fill:#c14048;}</style></defs><g id="Layer_2" data-name="Layer 2"><g id="Layer_1-2" data-name="Layer 1"><path class="cls-1" d="M162.36,114.67A78.9,78.9,0,1,1,111.76,41,78.47,78.47,0,0,1,162.36,114.67Z"/><path class="cls-2" d="M156.57,144.37A78.95,78.95,0,0,1,15.84,155.45a42.79,42.79,0,0,1-1.29-22.13c3.7-18.91,14.73-27.56,35.86-61.54C61.1,54.59,66,47.59,68.68,37.12l.12-.47C72,23.71,61.61,15.7,55.49,26.73,51.09,34.66,60,38.62,60,38.62s-7,3.54-13.59-6.08C41.89,26,42.07,9.5,59.19,1.84,78.56-6.83,96.6,16.66,111.76,41c.71,1.13,1.4,2.25,2.09,3.38,20.18,33,35.3,63,39.44,74.55A55.52,55.52,0,0,1,156.57,144.37Z"/><ellipse class="cls-3" cx="98.95" cy="117.92" rx="4.64" ry="8.1"/><circle class="cls-4" cx="97.97" cy="113.94" r="1.78"/><ellipse class="cls-3" cx="75.61" cy="117.96" rx="4.66" ry="8.14"/><circle class="cls-4" cx="76.59" cy="113.96" r="1.79"/><path class="cls-5" d="M86.5,144c12.4-.88,16.67-10.66,26.67-13.86,9.54-3.06,13.33,3.73,13.07,12.26-.27,7.47-3.34,12.94-10.14,17.07-15.77,9.6-31.33,6-36.8-1.6C75.05,151.94,77.17,144.65,86.5,144Z"/><path class="cls-6" d="M111.38,161.94c-2-3.13-6-5.29-10.68-5.29-5.73,0-10.51,3.23-11.66,7.53C95.17,166,103.11,165.67,111.38,161.94Z"/><path class="cls-4" d="M113.17,130.12c-10,3.2-14.27,13-26.67,13.86-4.88.35-7.77,2.52-8.83,5.35,10.89.5,19.35-2.45,30-8.28,5.58-3,10.61-7.92,11.46-11.53A12.29,12.29,0,0,0,113.17,130.12Z"/><path class="cls-7" d="M11,159c8.85,1.49,13.1,13,3.62,10.11-1.27,6.69-1,16.56-10.43,13.28-7.46-2.85-3.5-16.57.52-21.38C7,158.26,11,159,11,159Z"/><path class="cls-7" d="M160.07,116.4c-5.86-6-2.73-17,2.82-9.62,4.63-4.35,9.84-12,15.16-4.3,4.06,6.25-6.46,14.44-12.13,15.85C162.66,119.15,160.07,116.4,160.07,116.4Z"/></g></g></svg>